<svg xmlns="http://www.w3.org/2000/svg">
  <symbol id="check-square-fill" viewBox="0 0 16 16">
    <path d="M2 0a2 2 0 0 0-2 2v12a2 2 0 0 0 2 2h12a2 2 0 0 0 2-2V2a2 2 0 0 0-2-2H2zm10.03 4.97a.75.75 0 0 1 .011 1.05l-3.992 4.99a.75.75 0 0 1-1.08.02L4.324 8.384a.75.75 0 1 1 1.06-1.06l2.094 2.093 3.473-4.425a.75.75 0 0 1 1.08-.022z"/>
  </symbol>
  <symbol id="x-square-fill" viewBox="0 0 16 16">
    <path d="M2 0a2 2 0 0 0-2 2v12a2 2 0 0 0 2 2h12a2 2 0 0 0 2-2V2a2 2 0 0 0-2-2H2zm3.354 4.646L8 7.293l2.646-2.647a.5.5 0 0 1 .708.708L8.707 8l2.647 2.646a.5.5 0 0 1-.708.708L8 8.707l-2.646 2.647a.5.5 0 0 1-.708-.708L7.293 8 4.646 5.354a.5.5 0 1 1 .708-.708z"/>
  </symbol>
  <symbol id="grip-horizontal" viewBox="0 0 16 16">
    <path d="M2 8a1 1 0 1 1 0 2 1 1 0 0 1 0-2zm0-3a1 1 0 1 1 0 2 1 1 0 0 1 0-2zm3 3a1 1 0 1 1 0 2 1 1 0 0 1 0-2zm0-3a1 1 0 1 1 0 2 1 1 0 0 1 0-2zm3 3a1 1 0 1 1 0 2 1 1 0 0 1 0-2zm0-3a1 1 0 1 1 0 2 1 1 0 0 1 0-2zm3 3a1 1 0 1 1 0 2 1 1 0 0 1 0-2zm0-3a1 1 0 1 1 0 2 1 1 0 0 1 0-2zm3 3a1 1 0 1 1 0 2 1 1 0 0 1 0-2zm0-3a1 1 0 1 1 0 2 1 1 0 0 1 0-2z"/>
  </symbol>
  <symbol id="mobile" viewBox="0 0 16 16">
    <path d="M11 1a1 1 0 0 1 1 1v12a1 1 0 0 1-1 1H5a1 1 0 0 1-1-1V2a1 1 0 0 1 1-1h6zM5 0a2 2 0 0 0-2 2v12a2 2 0 0 0 2 2h6a2 2 0 0 0 2-2V2a2 2 0 0 0-2-2H5z"/>
    <path d="M8 14a1 1 0 1 0 0-2 1 1 0 0 0 0 2z"/>
  </symbol>
  <symbol id="tablet" viewBox="0 0 16 16">
    <path d="M12 1a1 1 0 0 1 1 1v12a1 1 0 0 1-1 1H4a1 1 0 0 1-1-1V2a1 1 0 0 1 1-1h8zM4 0a2 2 0 0 0-2 2v12a2 2 0 0 0 2 2h8a2 2 0 0 0 2-2V2a2 2 0 0 0-2-2H4z"/>
    <path d="M8 14a1 1 0 1 0 0-2 1 1 0 0 0 0 2z"/>
  </symbol>
  <symbol id="desktop" viewBox="0 0 16 16">
    <path d="M8 1a1 1 0 0 1 1-1h6a1 1 0 0 1 1 1v14a1 1 0 0 1-1 1H9a1 1 0 0 1-1-1V1Zm1 13.5a.5.5 0 1 0 1 0 .5.5 0 0 0-1 0Zm2 0a.5.5 0 1 0 1 0 .5.5 0 0 0-1 0ZM9.5 1a.5.5 0 0 0 0 1h5a.5.5 0 0 0 0-1h-5ZM9 3.5a.5.5 0 0 0 .5.5h5a.5.5 0 0 0 0-1h-5a.5.5 0 0 0-.5.5ZM1.5 2A1.5 1.5 0 0 0 0 3.5v7A1.5 1.5 0 0 0 1.5 12H6v2h-.5a.5.5 0 0 0 0 1H7v-4H1.5a.5.5 0 0 1-.5-.5v-7a.5.5 0 0 1 .5-.5H7V2H1.5Z"/>
  </symbol>
  <symbol id="reload" viewBox="0 0 16 16">
    <path fill-rule="evenodd" d="M8 3a5 5 0 1 0 4.546 2.914.5.5 0 0 1 .908-.417A6 6 0 1 1 8 2v1z"/>
    <path d="M8 4.466V.534a.25.25 0 0 1 .41-.192l2.36 1.966c.12.1.12.284 0 .384L8.41 4.658A.25.25 0 0 1 8 4.466z"/>
  </symbol>

  <!-- Icon Select -->
  <symbol id="video" viewBox="0 0 22 18" xmlns="http://www.w3.org/2000/svg">
   <path d="M20 0H2C0.9 0 0 0.9 0 2V14C0 15.1 0.9 16 2 16H7V17C7 17.55 7.45 18 8 18H14C14.55 18 15 17.55 15 17V16H20C21.1 16 21.99 15.1 21.99 14L22 2C22 0.89 21.1 0 20 0ZM19 14H3C2.45 14 2 13.55 2 13V3C2 2.45 2.45 2 3 2H19C19.55 2 20 2.45 20 3V13C20 13.55 19.55 14 19 14ZM13.48 8.87L9.5 11.15C8.83 11.53 8 11.04 8 10.28V5.72C8 4.95 8.83 4.47 9.5 4.85L13.48 7.13C14.15 7.52 14.15 8.48 13.48 8.87Z"/>
  </symbol>

  <symbol id="house" viewBox="0 0 22 20" xmlns="http://www.w3.org/2000/svg">
    <path d="M2.61109 2.80949H19.3889C20.048 2.80949 20.5873 2.2702 20.5873 1.61107C20.5873 0.951946 20.048 0.412659 19.3889 0.412659H2.61109C1.95196 0.412659 1.41267 0.951946 1.41267 1.61107C1.41267 2.2702 1.95196 2.80949 2.61109 2.80949ZM20.7791 4.96664C20.6712 4.41537 20.1799 4.00791 19.6046 4.00791H2.39538C1.82014 4.00791 1.32878 4.41537 1.22093 4.96664L0.0225116 10.9587C-0.121298 11.7017 0.441957 12.3968 1.19696 12.3968H1.41267V18.3889C1.41267 19.048 1.95196 19.5873 2.61109 19.5873H12.1984C12.8575 19.5873 13.3968 19.048 13.3968 18.3889V12.3968H18.1905V18.3889C18.1905 19.048 18.7298 19.5873 19.3889 19.5873C20.048 19.5873 20.5873 19.048 20.5873 18.3889V12.3968H20.803C21.558 12.3968 22.1213 11.7017 21.9775 10.9587L20.7791 4.96664ZM11 17.1905H3.80951V12.3968H11V17.1905Z"/>
  </symbol>

  <symbol id="bill" viewBox="0 0 20 22" xmlns="http://www.w3.org/2000/svg">
    <path d="M18.2501 1.65L16.6001 0L14.9501 1.65L13.3001 0L11.6501 1.65L10.0001 0L8.3501 1.65L6.7001 0L5.0501 1.65L3.4001 0V15.4H1.2001C0.595098 15.4 0.100098 15.895 0.100098 16.5V18.7C0.100098 20.526 1.5741 22 3.4001 22H16.6001C18.4261 22 19.9001 20.526 19.9001 18.7V0L18.2501 1.65ZM13.3001 19.8H3.4001C2.7951 19.8 2.3001 19.305 2.3001 18.7V17.6H5.6001H10.0001H13.3001V19.8ZM17.7001 18.7C17.7001 19.305 17.2051 19.8 16.6001 19.8C15.9951 19.8 15.5001 19.305 15.5001 18.7V16.5C15.5001 15.895 15.0051 15.4 14.4001 15.4H12.2001H10.0001H5.6001V3.3H17.7001V18.7Z"/>
  </symbol>

  <symbol id="calendar" viewBox="0 0 20 21" xmlns="http://www.w3.org/2000/svg">
    <path d="M7.20005 9.31966H5.06672V11.3082H7.20005V9.31966ZM11.4667 9.31966H9.33338V11.3082H11.4667V9.31966ZM15.7334 9.31966H13.6V11.3082H15.7334V9.31966ZM17.8667 2.35967H16.8V0.371094H14.6667V2.35967H6.13338V0.371094H4.00005V2.35967H2.93338C1.74938 2.35967 0.810715 3.25452 0.810715 4.34824L0.800049 18.2682C0.800049 19.3619 1.74938 20.2568 2.93338 20.2568H17.8667C19.04 20.2568 20 19.3619 20 18.2682V4.34824C20 3.25452 19.04 2.35967 17.8667 2.35967ZM17.8667 18.2682H2.93338V7.33109H17.8667V18.2682Z" />
  </symbol>
</svg>